# ProBuilder 4.4.0
# https://unity3d.com/unity/features/worldbuilding/probuilder
# 3/3/2021 5:50:22 PM

mtllib ./FlamePlume.mtl
o FlamePlume

g FlamePlume
v 0.5766811 -0.07026336 46.11855
v 0.4752843 -0.1165688 46.62658
v 0.5920719 0.78813 46.63408
v 0.4318457 0.7974799 46.07351
v 0.2731231 -0.1861326 46.93585
v 0.2687281 0.7669915 46.8582
v 0.1538936 1.652797 46.62037
v 0.1383176 1.982589 46.55767
v 0.1359649 1.905219 46.28507
v -0.2457878 -0.2737356 47.04651
v -0.2657641 0.7825747 46.92204
v -0.7299626 -0.2727656 46.65631
v -0.6958861 0.8255297 46.80661
v -0.4289145 1.553481 46.70934
v -0.1875077 1.662147 46.73595
v -0.8298669 -0.2672092 46.34067
v -0.7595667 0.831763 46.27191
v -0.4236071 -0.06450815 46.02345
v -0.3401033 0.8359543 45.96901
v -0.2495712 1.492517 46.0968
v -0.3680414 1.779627 46.32304
v 0.07611253 -0.08107321 45.9229
v 0.07196116 0.8234877 45.9759
v 0.0466886 1.70306 46.17618
v -0.04161195 2.208936 46.45595
v -0.104226 -0.7293054 46.34398

vt 0.6102215 -0.496604
vt 0.1013333 -0.5495873
vt 0.1346435 -0.1910494
vt 0.5945079 -0.06718216
vt -0.2608517 -0.5567539
vt -0.1940932 -0.1290863
vt -0.01986297 0.3232627
vt 0.03121064 0.4800699
vt 0.2834171 0.4812755
vt 0.4634072 -0.4778461
vt -0.02910323 -0.5708845
vt -0.1008647 -0.07608816
vt 0.4174889 -0.03919964
vt -0.5677174 -0.4998359
vt -0.5448036 -0.0513318
vt -0.3188323 0.3072105
vt -0.07970451 0.3611861
vt 0.2397719 0.4034219
vt 0.3813872 -0.5831175
vt 0.1281314 -0.6510018
vt 0.04217198 -0.1755305
vt 0.5116478 -0.09157784
vt -0.3197046 -0.4808346
vt -0.3982966 -0.08306329
vt -0.3122649 0.23706
vt -0.05673131 0.3499185
vt 0.3224918 0.2845001
vt 0.3874932 -0.4527948
vt -0.08279384 -0.5096072
vt -0.06105751 -0.100864
vt 0.3444346 -0.07974572
vt -0.6115593 -0.471387
vt -0.4337631 -0.1001726
vt -0.1511837 0.4539923
vt -0.04849254 0.3392567
vt 0.2509148 0.2380089
vt -0.2330545 0.2672385
vt 0.03143006 0.340165
vt -0.01370053 0.1640978
vt -0.3209803 0.1411359
vt 0.07821925 0.3436097
vt 0.2778034 0.04936848
vt 0.3111049 -0.1934843
vt -0.07039686 -0.2096118
vt -0.3274265 -0.1740812
vt 0.3364573 -0.4151771
vt -0.08313505 -0.7194299
vt 0.07873879 -0.005407784
vt 0.5614693 0.04156175
vt -0.3605223 -0.5409081
vt -0.6098073 0.02777973
vt -0.3649953 0.497556
vt -0.01240066 0.6105133
vt 0.5037489 0.5752503

vn 0.9340864 0.1358597 -0.03689825
vn 0.9469108 -0.4889834 0.1768366
vn 0.9212619 0.7607027 -0.2506331
vn 0.6958103 0.02481643 0.6800723
vn 0.8302704 0.3459922 0.5501487
vn 0.5613501 -0.2963593 0.809996
vn 0.4882869 1.248957 0.6917948
vn 0.4163972 1.083608 0.7736358
vn 0.3445075 0.9182601 0.8554769
vn 0.81823 1.30784 -0.1328478
vn 0.8558679 1.228204 -0.06572369
vn 0.7805921 1.387475 -0.1999718
vn 0.1629269 0.5174546 0.9621055
vn 0.1967149 0.6048735 0.9479403
vn 0.1291389 0.4300358 0.9762706
vn -0.4273524 0.02824867 0.8515644
vn -0.6249962 -0.4591235 0.7583135
vn -0.2297087 0.5156209 0.9448155
vn -0.1927102 0.9502352 0.8818083
vn -0.1782597 0.9658224 0.8815905
vn -0.1638092 0.9814095 0.8813726
vn 0.218003 1.077084 0.8482869
vn 0.3008609 1.23875 0.788501
vn 0.1351451 0.915418 0.9080729
vn -0.9551282 -0.1569066 0.2995483
vn -0.9686876 0.03695077 0.2096101
vn -0.982247 0.2308082 0.1196719
vn -0.6148182 -0.1447183 -0.7898462
vn -0.6010259 -0.1059256 -0.8002828
vn -0.5872337 -0.06713291 -0.8107194
vn -0.5615779 1.020497 -0.650767
vn -0.6429111 0.9275542 -0.6107296
vn -0.4802448 1.113439 -0.6908044
vn -0.7279679 1.418617 0.07110295
vn -0.738071 1.388694 0.08802354
vn -0.7481741 1.358771 0.1049441
vn -0.2035403 -0.2491301 -0.9753899
vn -0.08965526 0.002037384 -0.9834872
vn 0.0242298 0.2532049 -0.9915845
vn 0.3667968 0.2828159 -0.9222252
vn 0.313685 0.1259105 -0.9437874
vn 0.2605731 -0.03099483 -0.9653496
vn 0.3349003 1.088329 -0.7997978
vn 0.3985119 1.19365 -0.7463596
vn 0.2712887 0.9830084 -0.8532359
vn 0.1159129 0.9772394 -0.8848004
vn 0.07821757 0.9041658 -0.9025549
vn 0.04052218 0.8310922 -0.9203094
vn 0.2991043 1.76775 -0.3648835
vn 0.5731174 1.850966 -0.09785996
vn 0.02509123 1.684533 -0.631907
vn 0.1983272 1.274988 0.7723934
vn 0.3180021 0.9182634 0.8650611
vn 0.07865222 1.631713 0.6797258
vn -0.1838453 1.720559 0.5917823
vn -0.3508822 1.758358 0.3698047
vn -0.5179192 1.796157 0.147827
vn -0.108304 1.705592 -0.5972067
vn -0.08097493 1.816347 -0.5383031
vn -0.1356331 1.594837 -0.6561103
vn -0.1386944 -2.024421 -0.3930409
vn -0.1956772 -1.850754 -0.5073955
vn -0.2526599 -1.677088 -0.6217501
vn -0.3245859 -2.107728 0.06563217
vn -0.284253 -2.099949 0.1458365
vn -0.2439202 -2.09217 0.2260408
vn 0.1234485 -2.0863 0.1206661
vn 0.01146572 -2.190644 -0.07446957
vn 0.2354313 -1.981956 0.3158017
vn 0.3762718 -1.989469 0.03342769
vn 0.2684913 -1.918177 -0.2405713
vn 0.1607107 -1.846884 -0.5145702

usemtl MatWhite
f 4/4/3 3/3/1 2/2/2 1/1/1
f 3/3/6 6/6/4 5/5/5 2/2/4
f 8/8/9 7/7/8 6/6/7 3/3/8
f 9/9/11 8/8/10 3/3/12 4/4/10
f 6/13/15 11/12/13 10/11/14 5/10/13
f 11/12/18 13/15/16 12/14/17 10/11/16
f 15/17/21 14/16/20 13/15/19 11/12/20
f 7/18/23 15/17/22 11/12/24 6/13/22
f 12/19/25 13/22/26 17/21/27 16/20/26
f 16/20/28 17/21/29 19/24/30 18/23/29
f 17/21/33 21/26/31 20/25/32 19/24/31
f 13/22/36 14/27/35 21/26/34 17/21/35
f 18/28/37 19/31/38 23/30/39 22/29/38
f 22/29/40 23/30/41 4/33/42 1/32/41
f 23/30/45 24/35/43 9/34/44 4/33/43
f 19/31/48 20/36/47 24/35/46 23/30/47
f 8/38/50 9/37/49 24/40/51 25/39/49
f 7/41/53 8/38/52 25/39/54 15/42/52
f 15/42/55 25/39/56 21/44/57 14/43/56
f 25/39/60 24/40/58 20/45/59 21/44/58
f 18/46/61 22/49/62 26/48/63 16/47/62
f 16/47/64 26/48/65 10/51/66 12/50/65
f 26/48/69 2/53/67 5/52/68 10/51/67
f 22/49/72 1/54/71 2/53/70 26/48/71

